<?xml version="1.0" encoding="UTF-8" standalone="no"?>
<!-- Generator: Adobe Illustrator 16.2.1, SVG Export Plug-In . SVG Version: 6.00 Build 0)  -->

<svg
   xmlns:dc="http://purl.org/dc/elements/1.1/"
   xmlns:cc="http://creativecommons.org/ns#"
   xmlns:rdf="http://www.w3.org/1999/02/22-rdf-syntax-ns#"
   xmlns:svg="http://www.w3.org/2000/svg"
   xmlns="http://www.w3.org/2000/svg"
   xmlns:sodipodi="http://sodipodi.sourceforge.net/DTD/sodipodi-0.dtd"
   xmlns:inkscape="http://www.inkscape.org/namespaces/inkscape"
   version="1.1"
   id="Layer_1"
   x="0px"
   y="0px"
   width="512px"
   height="512px"
   viewBox="0 0 512 512"
   style="enable-background:new 0 0 512 512;"
   xml:space="preserve"
   sodipodi:docname="navicon-round.svg"
   inkscape:version="0.92.0 15301"><metadata
     id="metadata15"><rdf:RDF><cc:Work
         rdf:about=""><dc:format>image/svg+xml</dc:format><dc:type
           rdf:resource="http://purl.org/dc/dcmitype/StillImage" /><dc:title></dc:title></cc:Work></rdf:RDF></metadata><defs
     id="defs13" /><sodipodi:namedview
     pagecolor="#000000"
     bordercolor="#666666"
     borderopacity="1"
     objecttolerance="10"
     gridtolerance="10"
     guidetolerance="10"
     inkscape:pageopacity="0"
     inkscape:pageshadow="2"
     inkscape:window-width="1855"
     inkscape:window-height="1056"
     id="namedview11"
     showgrid="false"
     inkscape:zoom="0.4609375"
     inkscape:cx="256"
     inkscape:cy="256"
     inkscape:window-x="65"
     inkscape:window-y="24"
     inkscape:window-maximized="1"
     inkscape:current-layer="Layer_1" /><g
     id="g8"
     style="fill:#ffffff"><path
       d="M417.4,224H94.6C77.7,224,64,238.3,64,256c0,17.7,13.7,32,30.6,32h322.8c16.9,0,30.6-14.3,30.6-32   C448,238.3,434.3,224,417.4,224z"
       id="path2"
       style="fill:#ffffff" /><path
       d="M417.4,96H94.6C77.7,96,64,110.3,64,128c0,17.7,13.7,32,30.6,32h322.8c16.9,0,30.6-14.3,30.6-32   C448,110.3,434.3,96,417.4,96z"
       id="path4"
       style="fill:#ffffff" /><path
       d="M417.4,352H94.6C77.7,352,64,366.3,64,384c0,17.7,13.7,32,30.6,32h322.8c16.9,0,30.6-14.3,30.6-32   C448,366.3,434.3,352,417.4,352z"
       id="path6"
       style="fill:#ffffff" /></g></svg>